<?xml version="1.0" encoding="UTF-8"?>
<svg width="117px" height="117px" viewBox="0 0 117 117" version="1.1" xmlns="http://www.w3.org/2000/svg" xmlns:xlink="http://www.w3.org/1999/xlink">
    <!-- Generator: Sketch 53.1 (72631) - https://sketchapp.com -->
    <title>dhk logo blk pdf</title>
    <desc>Created with Sketch.</desc>
    <g id="Symbols" stroke="none" stroke-width="1" fill="none" fill-rule="evenodd">
        <g id="Side-mar-menu">
            <g id="dhk-logo-blk-pdf">
                <g>
                    <rect id="Rectangle" fill="#000000" x="0" y="0" width="117" height="117"></rect>
                    <polygon id="Path" fill="#FFFFFF" points="73 70 73 46 80.9297753 46 80.9297753 60.1263736 84.2752809 53.9862637 93.6629213 53.9862637 87.8483146 61.7335165 94 70 84.511236 70 80.9297753 64 80.9297753 70"></polygon>
                    <g id="Group" transform="translate(23.000000, 45.000000)" fill="#FFFFFF">
                        <path d="M25.462963,25.2032258 L25.462963,0.78 L33.277037,0.78 L33.277037,7.55677419 L33.277037,9.72064516 C33.277037,10.1987097 33.2281481,10.6851613 33.1385185,11.1632258 C33.8392593,10.2490323 34.6377778,9.57806452 35.4281481,9.0916129 C36.2674074,8.61354839 37.2044444,8.42064516 38.2392593,8.42064516 C39.9666667,8.42064516 41.3762963,8.89870968 42.402963,9.96387097 C43.3888889,11.0206452 43.9022222,12.4632258 43.9022222,14.2916129 L43.9022222,25.2032258 L35.9496296,25.2032258 L35.9496296,16.983871 C35.9496296,16.1703226 35.8518519,15.6419355 35.7133333,15.3483871 C35.5259259,15.0129032 35.2488889,14.8703226 34.8251852,14.8703226 C34.3607407,14.8703226 34.0266667,15.0129032 33.7985185,15.3987097 C33.5622222,15.7845161 33.4237037,16.3129032 33.4237037,16.983871 L33.4237037,25.2032258 L25.462963,25.2032258 L25.462963,25.2032258 Z" id="Path"></path>
                        <path d="M11.6762963,0.78 L11.6762963,8.37870968 L11.6762963,10.0645161 C11.7251852,10.5425806 11.7659259,10.9283871 11.8148148,11.263871 C11.2037037,10.4 10.6007407,9.72903226 9.80222222,9.29290323 C9.75333333,9.24258065 9.6637037,9.20064516 9.56592593,9.15032258 C8.72666667,8.67225806 7.78962963,8.42903226 6.8037037,8.42903226 C4.88888889,8.42903226 3.29185185,9.24258065 2.02888889,10.836129 C0.814814815,12.4212903 0.154814815,14.4929032 0.154814815,17.0341935 C0.154814815,19.676129 0.765925926,21.7896774 2.02888889,23.4251613 C3.24296296,25.0103226 4.83185185,25.8322581 6.8037037,25.8322581 C7.87925926,25.8322581 8.86518519,25.5890323 9.70444444,25.0606452 C9.75333333,25.0606452 9.80222222,25.0103226 9.80222222,25.0103226 C10.6903704,24.4819355 11.3911111,23.7606452 12.0511111,22.796129 L12.0511111,25.1948387 L19.4903704,25.1948387 L19.4903704,0.78 L11.6762963,0.78 Z M11.3014815,18.8625806 C10.9266667,19.3406452 10.4622222,19.5335484 9.80222222,19.5335484 C9.24,19.5335484 8.72666667,19.3406452 8.35185185,18.8625806 C7.97703704,18.3845161 7.78962963,17.856129 7.78962963,17.1348387 C7.78962963,16.4135484 7.97703704,15.8348387 8.35185185,15.4070968 C8.72666667,14.9709677 9.19111111,14.736129 9.80222222,14.736129 C10.4540741,14.736129 10.9266667,14.9793548 11.3014815,15.4070968 C11.6762963,15.8432258 11.8637037,16.4135484 11.8637037,17.1348387 C11.8637037,17.856129 11.6762963,18.376129 11.3014815,18.8625806 Z" id="Shape" fill-rule="nonzero"></path>
                    </g>
                </g>
            </g>
        </g>
    </g>
</svg>