<?xml version="1.0" encoding="UTF-8"?>
<svg width="15px" height="15px" viewBox="0 0 15 15" version="1.1" xmlns="http://www.w3.org/2000/svg" xmlns:xlink="http://www.w3.org/1999/xlink">
    <!-- Generator: Sketch 53.1 (72631) - https://sketchapp.com -->
    <title>Shape</title>
    <desc>Created with Sketch.</desc>
    <g id="Symbols" stroke="none" stroke-width="1" fill="none" fill-rule="evenodd">
        <g id="Side-mar-menu" transform="translate(-102.000000, -615.000000)" fill="#000000" fill-rule="nonzero">
            <g id="social-media-icons">
                <g transform="translate(0.000000, 615.000000)">
                    <path d="M114.78044,12.7826868 L112.556388,12.7826868 L112.556388,9.30058409 C112.556388,8.46937247 112.542908,7.40227647 111.399431,7.40227647 C110.242474,7.40227647 110.064999,8.30762318 110.064999,9.23992811 L110.064999,12.7804403 L107.843193,12.7804403 L107.843193,5.62528081 L109.975139,5.62528081 L109.975139,6.60476262 L110.00659,6.60476262 C110.30313,6.04313314 111.028755,5.4478059 112.111577,5.4478059 C114.364835,5.4478059 114.78044,6.93050771 114.78044,8.85802007 L114.78044,12.7826868 Z M105.336079,4.64579901 C104.621686,4.64579901 104.044331,4.06844391 104.044331,3.35629774 C104.044331,2.64415157 104.61944,2.06679647 105.336079,2.06679647 C106.048225,2.06679647 106.62558,2.64415157 106.62558,3.35629774 C106.623334,4.06844391 106.045979,4.64579901 105.336079,4.64579901 L105.336079,4.64579901 Z M106.448105,12.7826868 L104.221806,12.7826868 L104.221806,5.62528081 L106.448105,5.62528081 L106.448105,12.7826868 Z M116.997753,0 L103.105287,0 L102,0 L102,13.9171784 L102,15 L115.89022,15 L117,15 L117,1.08282163 L117,0 L116.997753,0 Z" id="Shape"></path>
                </g>
            </g>
        </g>
    </g>
</svg>