<?xml version="1.0" encoding="UTF-8"?>
<svg width="15px" height="15px" viewBox="0 0 15 15" version="1.1" xmlns="http://www.w3.org/2000/svg" xmlns:xlink="http://www.w3.org/1999/xlink">
    <!-- Generator: Sketch 53.1 (72631) - https://sketchapp.com -->
    <title>Shape</title>
    <desc>Created with Sketch.</desc>
    <g id="Symbols" stroke="none" stroke-width="1" fill="none" fill-rule="evenodd">
        <g id="Side-mar-menu" transform="translate(-76.000000, -615.000000)" fill="#000000" fill-rule="nonzero">
            <g id="social-media-icons">
                <g transform="translate(0.000000, 615.000000)">
                    <path d="M84.4618834,10.7887218 C83.735426,10.7887218 83.0515695,10.4007519 82.8183857,9.95864662 C82.8183857,9.95864662 82.4282511,11.4947368 82.3452915,11.7902256 C82.0538117,12.8368421 81.1950673,13.8857143 81.1300448,13.9714286 C81.0829596,14.0323308 80.9798206,14.0120301 80.970852,13.9330827 C80.9529148,13.8 80.7331839,12.4781955 80.9910314,11.4 C81.1210762,10.8586466 81.8565022,7.76842105 81.8565022,7.76842105 C81.8565022,7.76842105 81.6412556,7.34210526 81.6412556,6.71278195 C81.6412556,5.72481203 82.2197309,4.98721805 82.9394619,4.98721805 C83.5515695,4.98721805 83.8475336,5.44285714 83.8475336,5.9887218 C83.8475336,6.59774436 83.455157,7.50902256 83.2533632,8.35488722 C83.0852018,9.06315789 83.6121076,9.63834586 84.3161435,9.63834586 C85.5919283,9.63834586 86.4506726,8.01654135 86.4506726,6.09473684 C86.4506726,4.63308271 85.4573991,3.53909774 83.6502242,3.53909774 C81.6076233,3.53909774 80.3363229,5.0481203 80.3363229,6.73308271 C80.3363229,7.31278195 80.5089686,7.72330827 80.7802691,8.04135338 C80.9035874,8.18796992 80.9215247,8.24661654 80.8766816,8.41353383 C80.8430493,8.53533835 80.7713004,8.83082707 80.7399103,8.9481203 C80.6950673,9.11729323 80.5560538,9.17819549 80.4035874,9.11503759 C79.4641256,8.73383459 79.0246637,7.71428571 79.0246637,6.56842105 C79.0246637,4.67368421 80.6367713,2.40451128 83.8363229,2.40451128 C86.4080717,2.40451128 88.0986547,4.24511278 88.0986547,6.22330827 C88.0964126,8.83308271 86.6278027,10.7887218 84.4618834,10.7887218 L84.4618834,10.7887218 Z M91,0 L76,0 L76,2.45639098 L76,12.6721805 L76,15 L91,15 C91,15 90.9955157,14.7744361 90.9955157,12.5909774 L90.9955157,2.45864662 L91,0 Z" id="Shape"></path>
                </g>
            </g>
        </g>
    </g>
</svg>