<?xml version="1.0" encoding="UTF-8"?>
<svg width="15px" height="15px" viewBox="0 0 15 15" version="1.1" xmlns="http://www.w3.org/2000/svg" xmlns:xlink="http://www.w3.org/1999/xlink">
    <!-- Generator: Sketch 53.1 (72631) - https://sketchapp.com -->
    <title>Shape</title>
    <desc>Created with Sketch.</desc>
    <g id="Page-1" stroke="none" stroke-width="1" fill="none" fill-rule="evenodd" opacity="0.662272135">
        <g id="Projects-single" transform="translate(-1255.000000, -924.000000)" fill="#000000" fill-rule="nonzero">
            <g id="Details" transform="translate(1128.000000, 824.000000)">
                <g id="social-media-icons" transform="translate(76.000000, 100.000000)">
                    <path d="M64.3218511,12.8366033 C64.3218511,13.0679946 64.1331436,13.2544556 63.9017523,13.2544556 L53.1319455,13.2544556 C52.9005541,13.2544556 52.7118466,13.0679946 52.7118466,12.8366033 L52.7118466,6.31496181 L54.1159203,6.31496181 C54.010334,6.69911637 53.954171,7.10124307 53.954171,7.5190954 C53.954171,10.0284559 56.0007488,12.0705407 58.5168489,12.0705407 C61.0329489,12.0705407 63.0795267,10.0284559 63.0795267,7.5190954 C63.0795267,7.10348959 63.0233638,6.69911637 62.9177774,6.31496181 L64.3218511,6.31496181 L64.3218511,12.8366033 L64.3218511,12.8366033 Z M58.5190954,4.63905946 C60.1118766,4.63905946 61.4036244,5.92856073 61.4036244,7.51684888 C61.4036244,9.10513704 60.1118766,10.3946383 58.5190954,10.3946383 C56.9263142,10.3946383 55.6345664,9.10738356 55.6345664,7.51684888 C55.6345664,5.92631421 56.9263142,4.63905946 58.5190954,4.63905946 L58.5190954,4.63905946 Z M61.41935,2.12745245 C61.41935,1.89606111 61.6080575,1.70960012 61.8394489,1.70960012 L63.8680545,1.70960012 C64.0994459,1.70960012 64.2881534,1.89606111 64.2881534,2.12745245 L64.2881534,4.15156507 C64.2881534,4.38295642 64.0994459,4.5694174 63.8680545,4.5694174 L61.8394489,4.5694174 C61.6080575,4.5694174 61.41935,4.38295642 61.41935,4.15156507 L61.41935,2.12745245 Z M51,15 L66,15 L66,0 L51,0 L51,15 Z" id="Shape"></path>
                </g>
            </g>
        </g>
    </g>
</svg>