<?xml version="1.0" encoding="UTF-8"?>
<svg width="15px" height="15px" viewBox="0 0 15 15" version="1.1" xmlns="http://www.w3.org/2000/svg" xmlns:xlink="http://www.w3.org/1999/xlink">
    <!-- Generator: Sketch 53.1 (72631) - https://sketchapp.com -->
    <title>Shape</title>
    <desc>Created with Sketch.</desc>
    <g id="Page-1" stroke="none" stroke-width="1" fill="none" fill-rule="evenodd" opacity="0.662272135">
        <g id="Projects-single" transform="translate(-1230.000000, -924.000000)" fill="#000000" fill-rule="nonzero">
            <g id="Details" transform="translate(1128.000000, 824.000000)">
                <g id="social-media-icons" transform="translate(76.000000, 100.000000)">
                    <path d="M37.32287,4.72197309 C37.7376682,4.67264574 38.132287,4.56278027 38.5022422,4.39910314 C38.2264574,4.81165919 37.8789238,5.17264574 37.6793722,5.3161435 C37.4798206,5.45964126 37.4820628,5.5044843 37.4820628,5.5044843 C37.4843049,5.54932735 37.4865471,5.6367713 37.4865471,5.7264574 C37.4865471,8.43721973 35.4237668,11.5627803 31.6502242,11.5627803 C30.4910314,11.5627803 29.4125561,11.2242152 28.9596413,10.9327354 C28.5067265,10.6412556 28.5852018,10.6524664 28.5852018,10.6524664 C28.6659193,10.661435 28.8295964,10.6726457 28.9932735,10.6726457 C29.955157,10.6726457 30.838565,10.3452915 31.190583,10.0695067 C31.5403587,9.79372197 31.0919283,9.78475336 31.0919283,9.78475336 C30.6434978,9.77578475 29.8856502,9.1838565 29.7556054,8.77578475 C29.6255605,8.367713 29.6883408,8.38116592 29.6883408,8.38116592 C29.7511211,8.39237668 29.8789238,8.4058296 30.0112108,8.4058296 C30.1973094,8.4058296 30.3789238,8.38116592 30.4663677,8.35650224 C30.5515695,8.33408072 30.0829596,8.23991031 30.0829596,8.23991031 C29.6143498,8.14573991 28.9058296,7.3161435 28.9058296,6.32286996 L28.9058296,6.29596413 C29.1816143,6.44843049 29.5,6.5426009 29.8340807,6.55156951 C29.2847534,6.1838565 28.9215247,5.55605381 28.9215247,4.84304933 C28.9215247,4.46636771 29.0224215,4.11434978 29.1995516,3.81165919 C30.2130045,5.05381166 31.7242152,5.86995516 33.4282511,5.95515695 C33.3923767,5.80493274 33.3744395,5.64798206 33.3744395,5.48878924 C33.3744395,4.35650224 34.293722,3.43721973 35.426009,3.43721973 C36.0156951,3.43721973 36.5493274,3.68609865 36.9237668,4.08520179 C37.3901345,3.99327354 37.8295964,3.82286996 38.2264574,3.58744395 C38.0717489,4.06726457 37.7466368,4.46860987 37.32287,4.72197309 L37.32287,4.72197309 Z M41,0 L26,0 L26,15 L41,15 L41,0 Z" id="Shape"></path>
                </g>
            </g>
        </g>
    </g>
</svg>